<svg width="39" height="39" viewBox="0 0 39 39" fill="none" xmlns="http://www.w3.org/2000/svg">
<path fill-rule="evenodd" clip-rule="evenodd" d="M23.8075 19.7595C24.159 20.1109 24.159 20.6808 23.8075 21.0322L20.3036 24.5362L19.6672 25.1726L19.0308 24.5362L15.5268 21.0322C15.1753 20.6808 15.1753 20.1109 15.5268 19.7595C15.8783 19.408 16.4481 19.408 16.7996 19.7595L18.7672 21.7271L18.7672 9.9C18.7672 9.40295 19.1702 9 19.6672 9C20.1643 9 20.5672 9.40295 20.5672 9.9L20.5672 21.727L22.5347 19.7595C22.8862 19.408 23.4561 19.408 23.8075 19.7595ZM25.963 27.0999H13.3777C12.5064 27.0999 11.8 26.3935 11.8 25.5222L11.8 19.4284C11.8 18.5571 12.5064 17.8507 13.3777 17.8507H15.1626C15.6596 17.8507 16.0626 17.4478 16.0626 16.9507C16.0626 16.4537 15.6596 16.0507 15.1626 16.0507L13.3777 16.0507C11.5122 16.0507 10 17.563 10 19.4284L10 25.5222C10 27.3876 11.5122 28.8999 13.3777 28.8999L25.963 28.8999C27.8284 28.8999 29.3407 27.3876 29.3407 25.5222V19.4284C29.3407 17.563 27.8284 16.0507 25.963 16.0507L24.1626 16.0507C23.6655 16.0507 23.2626 16.4537 23.2626 16.9507C23.2626 17.4478 23.6655 17.8507 24.1626 17.8507H25.963C26.8343 17.8507 27.5407 18.5571 27.5407 19.4284V25.5222C27.5407 26.3935 26.8343 27.0999 25.963 27.0999Z" fill="#000"/>
</svg>
