<svg xmlns="http://www.w3.org/2000/svg" xmlns:xlink="http://www.w3.org/1999/xlink" xml:space="preserve" width="400" height="400" viewBox="0 0 400 400"><defs><linearGradient id="a"><stop style="stop-color:#00378c;stop-opacity:1" offset="0"/><stop offset=".127" style="stop-color:#00378b;stop-opacity:1"/><stop offset=".247" style="stop-color:#0d378a;stop-opacity:1"/><stop offset=".374" style="stop-color:#5d3574;stop-opacity:1"/><stop offset=".475" style="stop-color:#7e3162;stop-opacity:1"/><stop offset=".608" style="stop-color:#b91f3d;stop-opacity:1"/><stop offset=".754" style="stop-color:#e1001a;stop-opacity:1"/><stop offset=".879" style="stop-color:#e2001a;stop-opacity:1"/><stop style="stop-color:#e1001a;stop-opacity:1" offset="1"/></linearGradient><linearGradient xlink:href="#a" id="b" x1="28.539" y1="14.269" x2="563.638" y2="815.135" gradientUnits="userSpaceOnUse"/><linearGradient xlink:href="#a" id="c" gradientUnits="userSpaceOnUse" x1="28.539" y1="14.269" x2="563.638" y2="815.135"/><linearGradient xlink:href="#a" id="d" gradientUnits="userSpaceOnUse" x1="28.539" y1="14.269" x2="563.638" y2="815.135"/></defs><g style="fill:url(#b);fill-opacity:1" transform="matrix(.75 0 0 -.75 -23.146 612.385)"><path d="M164.74 685.647c-35.45-36.76-54.336-82.128-54.336-133.388 0-48.478 18.887-95.745 54.337-131.097 35.712-36.432 82.422-54.468 132.504-54.468 49.263 0 96.792 18.036 131.784 54.468 73.159 73.519 73.159 191.162 0 264.485-30.77 30.409-70.998 50.376-114.5 53.518-6.09.884-11.228.982-17.284.982-50.082 0-96.792-18.56-132.504-54.5m-6.645-149.33c39.018 6.842 74.174 26.122 103.142 52.963 27.595 28.87 45.925 64.55 51.523 102.357 24.091-3.535 45.564-11.424 64.484-23.339L182.941 472.684c-13.847 18.396-22.554 40.23-24.845 63.634m39.967 115.384c18.462 18.429 41.211 31.686 65.14 36.367-5.107-24.648-18.135-46.383-35.843-64.845-19.018-18.625-40.95-30.507-66.547-36.66 6.35 23.469 19.05 46.448 37.25 65.138m18.298-211.064 194.861 192.504c13.388-17.545 21.08-39.214 23.47-60.392-38.134-6.907-74.076-24.125-102.913-52.439-27.627-29.59-46.514-66.416-52.472-105.957-23.339 1.996-44.091 12.536-62.946 26.284m149.46 45.892c18.887 18.135 41.931 31.588 67.594 35.778-5.335-24.648-18.756-48.282-38.003-68.347-18.56-18.036-42.193-31.686-67.169-38.069 5.794 26.678 18.265 51.49 37.578 70.638" style="fill:url(#c);fill-opacity:1"/><path d="M110.797 740.147C60.617 689.117 32.4 623.847 32.4 552.26c0-70.246 28.217-137.054 78.397-185.369 49.165-50.278 115.482-77.152 186.448-77.152 70.442 0 136.989 26.874 186.514 77.152 50.605 48.315 78.069 115.123 78.069 185.369 0 71.587-27.464 136.857-78.07 187.888-49.524 49.886-116.071 76.367-186.513 76.367-70.966 0-137.283-26.481-186.448-76.367m33.355-340.916c-41.113 42.258-63.994 96.366-63.994 153.028 0 58.2 22.88 112.406 63.994 154.075 40.229 40.884 95.09 63.175 153.093 63.175 57.61 0 112.275-22.291 153.552-63.175 40.065-41.67 63.142-95.876 63.142-154.075 0-56.662-23.077-110.77-63.142-153.028-41.277-40.72-95.942-62.946-153.552-62.946-58.003 0-112.864 22.226-153.093 62.946" style="fill:url(#d);fill-opacity:1"/></g></svg>